<svg t="1689237700285" class="icon" viewBox="0 0 1024 1024" version="1.1" xmlns="http://www.w3.org/2000/svg" p-id="1592" data-spm-anchor-id="a313x.7781069.0.i2" width="32" height="32"><path d="M617.51343948 5.53549048c70.34229299 0 119.58189809 56.27383438 119.58189809 126.61612737v77.3765223h161.78727387c63.30806369 0 119.58189809 49.23960509 119.58189808 112.54766878v569.77257322c0 63.30806369-49.23960509 119.58189809-112.54766878 119.58189807H406.48656052c-49.23960509 0-91.44498089-28.1369172-112.54766878-70.34229299H125.11738856c-70.34229299 0-119.58189809-56.27383438-119.58189808-126.61612738V139.18584715c0-70.34229299 49.23960509-133.65035668 112.54766878-133.65035667h499.43028022z m0 105.51343948h-492.39605092c-7.03422929 0-14.0684586 7.03422929-14.0684586 28.13691719v682.32024199c0 14.0684586 7.03422929 28.1369172 14.0684586 28.13691721h161.78727387v-21.1026879c0-28.1369172 21.10268789-56.27383438 56.27383439-56.27383439 28.1369172 0 49.23960509 21.10268789 49.23960509 42.20537579v77.3765223c0 7.03422929 7.03422929 14.0684586 14.06845861 14.06845859h499.43028022c7.03422929 0 14.0684586-7.03422929 14.0684586-14.06845859V322.07580893c0-7.03422929-7.03422929-14.0684586-14.0684586-14.0684586H406.48656052c-7.03422929 0-14.0684586 7.03422929-14.06845861 14.0684586V441.65770701c0 28.1369172-21.10268789 56.27383438-56.27383438 56.27383439-28.1369172 0-49.23960509-21.10268789-49.2396051-42.20537578V336.14426753c0-63.30806369 49.23960509-119.58189809 112.54766878-119.58189809h239.16379617v-70.34229299c0-21.10268789-14.0684586-35.17114649-21.1026879-35.17114649z m-21.10268789 316.54031845l168.82150317 168.82150318c21.10268789 21.10268789 21.10268789 49.23960509 7.0342293 70.34229299l-7.0342293 7.03422929-161.78727387 161.78727388c-21.10268789 21.10268789-56.27383438 21.10268789-77.37652229 0-21.10268789-21.10268789-21.10268789-49.23960509-7.03422931-70.34229299l7.03422931-7.03422928 70.34229299-70.34229301H300.97312104c-28.1369172 0-56.27383438-21.10268789-56.2738344-56.27383438 0-28.1369172 21.10268789-49.23960509 42.20537579-49.2396051h309.50608916l-70.34229299-70.34229299c-21.10268789-21.10268789-21.10268789-49.23960509-7.03422931-70.34229299l7.03422931-7.0342293c21.10268789-21.10268789 49.23960509-21.10268789 70.34229299-7.0342293z" p-id="1593" fill="#594d3a"></path></svg>