<svg t="1689228837118" class="icon" viewBox="0 0 1027 1024" version="1.1" xmlns="http://www.w3.org/2000/svg" p-id="1848" id="mx_n_1689228837119" width="200" height="200"><path d="M513.53765 0.20344c-374.842982 0-513.53765 326.925969-513.53765 510.219407s133.361777 513.53765 502.595348 513.53765c0 0 91.844234 1.659122 91.844234-80.901931S553.040546 886.92495 553.040546 827.473092a79.005792 79.005792 0 0 1 61.229489-85.879297c19.751448 0 150.111005 9.875724 222.914844-18.171332A296.824762 296.824762 0 0 0 1027.0753 454.289231 500.185671 500.185671 0 0 0 513.53765 0.20344zM200.437695 512.081969A89.19754 89.19754 0 1 1 289.595732 422.923932a89.158037 89.158037 0 0 1-89.158037 89.158037z m168.242835-220.623676a89.158037 89.158037 0 1 1 89.158037-89.158036 89.158037 89.158037 0 0 1-89.158037 89.158036z m286.000968 0a89.158037 89.158037 0 1 1 89.158037-89.158036 89.19754 89.19754 0 0 1-89.158037 89.158036z m169.783448 220.623676a89.19754 89.19754 0 1 1 89.19754-89.158037 89.19754 89.19754 0 0 1-89.19754 89.158037z" p-id="1849" fill="#5a4e3b"></path></svg>